<svg xmlns="http://www.w3.org/2000/svg" height="800" width="1200" version="1.0" viewBox="-52.995165 -9.580025 459.29143 57.48015"><path d="M19.4574.0076C-7.117.9586-6.2604 38.32 20.7386 38.32H50.676V17.0076H35.4886v13.1562h-7.25c-16.5475 0-16.5637-21.7725.4375-22h18.125V.0076H20.7386c-.4356-.0036-.8594-.0151-1.2812 0zm150 0V38.07h15.4062V8.1638h10.6562c2.9475 0 4.75 2.0388 4.75 4.5313V38.07h15.1876V12.4763c0-8.6137-5.1913-12.4687-12.2188-12.4687zm152.4062 0c-26.5743.951-25.7177 38.2852 1.2812 38.0625h30.1563V17.0076h-15.4375v13.1562h-7.0312c-16.5475 0-16.5326-21.7725.4687-22h17.9063V.0076h-26.0626c-.4356-.0036-.8594-.0151-1.2812 0zM59.7386.2263v37.8438H74.926V24.945h8.375c2.4925 0 4.3038.9137 5.4375 3.4062l4.5312 9.7188h15.875c-4.76-10.88-4.9825-13.8038-9.0624-16.75 9.295-4.08 7.9212-20.8675-6.8126-21.0938zm54.625 0v25.4063c0 8.3875 5.4487 12.4375 12.25 12.4375h33.7812V.2263h-15.1874v29.9375H134.301c-2.9475 0-4.5313-2.265-4.5313-4.5312V.2263zm110.1562 0v37.8438h29.0313c28.7862 0 28.5538-37.1638.2187-37.8438zm56.9063 0v37.8438h15.4063V.2263zM75.1448 8.1638h9.75c7.0276.2275 7.0276 8.625 0 8.625h-9.75v-5.9062zm164.5626 0h6.8124c16.3238.2275 16.3238 22 0 22h-6.8124V18.3513z" fill="#124280"/></svg>