<?xml version="1.0" encoding="UTF-8"?>
<svg xmlns="http://www.w3.org/2000/svg" version="1.1" viewBox="0 0 198.4 31">
  <defs>
    <style>
      .cls-1 {
        fill: #fff;
      }
    </style>
  </defs>
  <!-- Generator: Adobe Illustrator 28.7.3, SVG Export Plug-In . SVG Version: 1.2.0 Build 164)  -->
  <g>
    <g id="_Слой_2">
      <g id="SS">
        <g>
          <path class="cls-1" d="M99.2,19.4c0-.8,0-1.5,0-2.3-.2-1.9-.8-3.6-1.8-5,0,0-1.1-1.6-2.2-2.5-1.3-.9-2.4-1.3-3.5-1.6-.4-.1-2.2-.6-4.9-.7-2.1,0-4.5-.1-7.5,1-1.3.5-2.8,1.6-2.9,1.6-.5.4-.9.7-1.4,1.1-2.2,2-3.6,4.9-3.9,8-.2,2.5.3,4.7,1.3,6.6,0,0,0,.2.2.2,2.2,3.5,6.3,5,10.3,5.1,3.4.1,6.6-.2,10-1.3,1.2-.4,2.2-.7,3.4-1.2.1,0,.2-.2.3-.3.2-.6.8-2.3,1.1-3.4.1-.4-.2-.8-.6-.6-.7.2-1.6.5-1.8.5-3.8,1-7.9,1.5-11.6.7-1.6-.4-2.6-1.2-3.4-2.6-.3-.6-.6-1.3-.6-1.3l18.7.3c.2,0,.4-.1.5-.4.2-.6.3-1.2.3-1.9h0ZM80.6,16.9c-.3,0-.6-.3-.5-.7.8-2.5,3.1-4.4,5.7-4.4h.1c2.6,0,4.6,2,4.8,4.7,0,.3-.2.5-.5.5h-9.6Z"/>
          <path class="cls-1" d="M169.3,11.3c-.3-.4-.7-.7-1-1,0,0,0,0,0,0,0,0-.1-.1-.2-.2-.1-.1-.3-.2-.4-.3h0c0,0-.1,0-.1-.1,0,0,0,0,0,0,0,0,0,0-.1,0,0,0,0,0-.1,0,0,0-.1,0-.2-.1h0c-1-.6-2-.8-2.9-1.1h0c-.4-.1-2.2-.6-4.9-.7-2,0-4.5,0-7.4,1.1h0s0,0,0,0c-1,.4-1.9.9-2.5,1.3,0,0,0,0,0,0-.1,0-.2.1-.3.2,0,0,0,0,0,0-.5.3-.9.7-1.3,1.1-2.1,2-3.5,4.8-3.7,7.8,0,1.4,0,2.7.4,3.9.2.8.6,1.6,1,2.3,0,0,0,0,0,.1.1.2.3.4.4.6,1.2,1.7,2.7,2.6,3.6,3.1h0c.1,0,.2.1.3.2,2.8,1.5,5.6,1.4,7.9,1.3,2.5,0,4.7,0,7.3-1.3.1,0,.2-.1.4-.2,1.6-.8,2.8-1.8,3.6-2.7.2-.2.4-.4.5-.6,1.5-1.9,2.5-4.2,2.6-6.7s-.6-5.1-1.9-7c-.2-.3-.5-.6-.7-.9h0ZM163.2,19.7c-.2,3.1-2.8,5.6-5.8,5.6h-.1c-3,0-5.2-2.5-5-5.5v-2.2c.3-3.1,2.9-5.6,5.9-5.6h.1c3,0,5.2,2.5,5,5.6,0,0-.1,2.2-.1,2.2Z"/>
          <path class="cls-1" d="M7.7,0H2.2C1.9,0,1.7.2,1.7.5L0,26c-.2,2.3,1.7,4.3,4,4.3h21.4c.3,0,.5-.2.5-.5l.3-5c0-.3-.2-.5-.5-.5H8.7c-.3,0-.5-.2-.5-.5l1.4-21.5C9.7,1,8.8,0,7.7,0Z"/>
          <path class="cls-1" d="M134.7,0h-5.4c-.3,0-.5.2-.5.5l-.5,7.6h-5.6c-.3,0-.5.2-.5.5l-.2,3c0,.3.2.5.5.5h5.5l-1.2,17.6c0,.3.2.5.5.5h7.1c.3,0,.5-.2.5-.5l1.2-17.7h5.6c.3,0,.5-.2.5-.5l.2-3c0-.3-.2-.5-.5-.5h-5.5l.4-5.9c0-1.2-.9-2.2-2-2.2h0Z"/>
          <path class="cls-1" d="M30.5,30.3h7.1c.3,0,.5-.2.5-.5l1.4-21.2c0-.3-.2-.5-.5-.5h-7.1c-.3,0-.5.2-.5.5l-1.4,21.2c0,.3.2.5.5.5Z"/>
          <path class="cls-1" d="M32.1,6h7.1c.3,0,.5-.2.5-.5l.2-3.4C40,1,39.1,0,37.9,0h-5.4c-.3,0-.5.2-.5.5l-.3,5c0,.3.2.5.5.5Z"/>
          <path class="cls-1" d="M101.1,30.3h7.1c.3,0,.5-.2.5-.5l.9-13.9c.1-2.1,1.9-3.8,4-3.8h5.8c.3,0,.5-.2.5-.5l.2-3c0-.3-.2-.5-.5-.5h-10.1c-4.2,0-7.8,3.3-8.1,7.5l-.9,14.1c0,.3.2.5.5.5h0Z"/>
          <path class="cls-1" d="M59,8.1h-6.8c-.3,0-.5-.2-.5-.5l.5-7C52.2.2,51.9,0,51.7,0h-7.1c-.3,0-.5.2-.5.5l-2,29.2c0,.3.2.5.5.5h14.9c6,0,11.1-5,11.5-11.1.2-3.1-.8-5.8-2.6-7.8-1.8-2-4.4-3.2-7.4-3.2h0ZM60.4,19.7c-.2,3.1-2.8,5.6-5.8,5.6h-3.6c-.3,0-.5-.2-.5-.5l.8-12.3c0-.3.2-.5.5-.5h3.7c3,0,5.2,2.5,5,5.6,0,0-.2,2.2-.1,2.2Z"/>
          <path class="cls-1" d="M196.8,12.1c-.7-1.1-1.5-1.7-1.9-2-3.7-2.8-13.1-2.4-20-.1-.2,0-.3.2-.3.4v1.7c-.1,0-1.3,17.7-1.3,17.7,0,.3.2.5.5.5h7.1c.3,0,.5-.2.5-.5l1.1-17.3c0-.3.2-.5.5-.5h2.6c2.8,0,4.9,2.3,4.8,5.1v1c0,0-.8,11.6-.8,11.6,0,.3.2.5.5.5h7.1c.3,0,.5-.2.5-.5l.8-11.7c0-1.3,0-3.8-1.6-6.1h0Z"/>
        </g>
      </g>
    </g>
  </g>
</svg>